<?xml version="1.0" encoding="UTF-8"?>
<svg id="Layer_1" data-name="Layer 1" xmlns="http://www.w3.org/2000/svg" viewBox="0 0 242.05 103.2">
  <defs>
    <style>
      .cls-1 {
        fill: #fff;
      }

      .cls-2 {
        fill: #3bbfad;
      }

      .cls-3 {
        fill: #006e63;
      }

      .cls-4 {
        fill: #a3d300;
      }
    </style>
  </defs>
  <rect class="cls-3" width="103.2" height="103.2"/>
  <rect class="cls-4" x="103.2" width="138.85" height="103.2"/>
  <g>
    <path class="cls-1" d="M10.03,60.8l6.9-18.36h3.98l6.91,18.36h-4.06l-1.11-3.16h-7.55l-1.11,3.16h-3.96ZM18.85,47.09l-2.53,7.16h5.12l-2.53-7.16h-.05Z"/>
    <path class="cls-1" d="M27.02,60.8l6.9-18.36h3.98l6.9,18.36h-4.06l-1.11-3.16h-7.55l-1.11,3.16h-3.96ZM35.84,47.09l-2.53,7.16h5.12l-2.53-7.16h-.05Z"/>
    <path class="cls-1" d="M73.59,55.67c0-3.62-9.83-.78-9.83-7.97,0-3.1,2.46-5.66,6.7-5.66s6.72,2.82,6.83,6.13h-3.7c-.08-1.6-1.22-2.77-3.18-2.77-1.78,0-2.92.88-2.92,2.07,0,3.67,9.93.78,9.93,8.07,0,3.28-2.9,5.61-7.27,5.61-5.09,0-6.98-3.16-7.09-6.18h3.72c.1,1.5,1.19,2.82,3.57,2.82,2.02,0,3.23-.78,3.23-2.12Z"/>
    <path class="cls-1" d="M79.05,60.8v-18.36h7.76c4.22,0,6.1,2.25,6.1,5.04,0,1.91-.98,3.36-2.56,4.06,1.68.65,2.82,2.09,2.82,4.06,0,3.16-2.04,5.2-6.03,5.2h-8.09ZM82.72,45.86v3.98h4.06c1.45,0,2.33-.67,2.33-1.99,0-1.09-.67-1.99-2.33-1.99h-4.06ZM82.72,53.22v4.19h4.32c1.6,0,2.33-.8,2.33-2.09s-.72-2.09-2.33-2.09h-4.32Z"/>
    <path class="cls-1" d="M57.92,54.98c-.8,1.65-2.43,2.56-4.49,2.56-3.36,0-5.25-2.33-5.25-5.95s1.89-5.95,5.25-5.95c2.46,0,4.32,1.29,4.86,3.59h4.03c-.7-4.47-4.32-7.19-8.9-7.19-5.28,0-9.23,3.8-9.23,9.54s3.96,9.54,9.23,9.54c4.21,0,7.61-2.3,8.67-6.15h-4.18Z"/>
  </g>
  <rect class="cls-2" x="103.2" y="76.25" width="138.85" height="26.95"/>
  <g>
    <path class="cls-3" d="M119.04,25.06v-13.87h5.86c3.18,0,4.61,1.7,4.61,3.81,0,1.45-.74,2.54-1.93,3.07,1.27.49,2.13,1.58,2.13,3.07,0,2.38-1.54,3.93-4.55,3.93h-6.11ZM121.81,13.75v3.01h3.07c1.09,0,1.76-.51,1.76-1.5,0-.82-.51-1.5-1.76-1.5h-3.07ZM121.81,19.34v3.16h3.26c1.21,0,1.76-.61,1.76-1.58s-.55-1.58-1.76-1.58h-3.26Z"/>
    <path class="cls-3" d="M131.74,20.68v-5.86h2.77v5.9c0,1.43.64,2.09,1.87,2.09s1.87-.66,1.87-2.09v-5.9h2.77v5.86c0,3.32-1.66,4.61-4.65,4.61s-4.65-1.29-4.65-4.61Z"/>
    <path class="cls-3" d="M142.6,21.74h2.81c.04.68.55,1.33,1.7,1.33,1.05,0,1.6-.37,1.6-.94,0-1.72-5.68-.1-5.68-4.16,0-1.86,1.58-3.38,4.1-3.38,3.07,0,4.12,1.95,4.2,3.46h-2.68c-.06-.64-.55-1.23-1.54-1.23-.9,0-1.41.43-1.41,1,0,1.72,5.66,0,5.66,4.2,0,1.84-1.56,3.28-4.34,3.28-3.2,0-4.3-1.64-4.43-3.55Z"/>
    <path class="cls-3" d="M152.92,11.84c0-.98.7-1.68,1.68-1.68s1.68.7,1.68,1.68-.7,1.66-1.68,1.66-1.68-.68-1.68-1.66ZM153.21,14.83h2.77v10.23h-2.77v-10.23Z"/>
    <path class="cls-3" d="M160.94,16.08c.47-.88,1.52-1.48,3.05-1.48,2.46,0,3.77,1.64,3.77,4.08v6.39h-2.77v-6.07c0-1.19-.51-2.01-1.74-2.01-1.35,0-2.09.86-2.09,2.23v5.86h-2.77v-10.23h2.56v1.25Z"/>
    <path class="cls-3" d="M172.23,20.74c.2,1.41,1.09,2.17,2.48,2.17.84,0,1.64-.37,1.97-1.11h2.79c-.61,2.07-2.48,3.5-4.84,3.5-3.03,0-5.16-2.23-5.16-5.37s2.11-5.33,5.14-5.33,5.08,2.3,5.08,5.33c0,.45-.04.82-.04.82h-7.42ZM172.27,18.75h4.65c-.2-1.15-1.04-1.93-2.32-1.93s-2.09.76-2.32,1.93Z"/>
    <path class="cls-3" d="M180.7,21.74h2.81c.04.68.55,1.33,1.7,1.33,1.05,0,1.6-.37,1.6-.94,0-1.72-5.68-.1-5.68-4.16,0-1.86,1.58-3.38,4.1-3.38,3.07,0,4.12,1.95,4.2,3.46h-2.68c-.06-.64-.55-1.23-1.54-1.23-.9,0-1.41.43-1.41,1,0,1.72,5.66,0,5.66,4.2,0,1.84-1.56,3.28-4.34,3.28-3.2,0-4.3-1.64-4.43-3.55Z"/>
    <path class="cls-3" d="M190.6,21.74h2.81c.04.68.55,1.33,1.7,1.33,1.05,0,1.6-.37,1.6-.94,0-1.72-5.68-.1-5.68-4.16,0-1.86,1.58-3.38,4.1-3.38,3.07,0,4.12,1.95,4.2,3.46h-2.68c-.06-.64-.55-1.23-1.54-1.23-.9,0-1.41.43-1.41,1,0,1.72,5.66,0,5.66,4.2,0,1.84-1.56,3.28-4.34,3.28-3.2,0-4.3-1.64-4.43-3.55Z"/>
    <path class="cls-3" d="M129.02,44.59h-9.98v-13.87h9.98v2.62h-7.13v2.91h6.84v2.62h-6.84v3.11h7.13v2.62Z"/>
    <path class="cls-3" d="M138.38,29.94h2.77v14.65h-2.56v-1.25c-.64.94-1.8,1.48-3.24,1.48-2.97,0-4.71-2.38-4.71-5.35s1.74-5.35,4.71-5.35c1.45,0,2.5.62,3.03,1.33v-5.51ZM135.94,36.56c-1.54,0-2.52,1.25-2.52,2.91s.98,2.91,2.52,2.91,2.52-1.25,2.52-2.91-.98-2.91-2.52-2.91Z"/>
    <path class="cls-3" d="M143.48,40.22v-5.86h2.77v5.9c0,1.43.64,2.09,1.87,2.09s1.87-.66,1.87-2.09v-5.9h2.77v5.86c0,3.32-1.66,4.61-4.65,4.61s-4.65-1.29-4.65-4.61Z"/>
    <path class="cls-3" d="M159.6,34.12c3.18,0,4.69,2.25,4.88,3.98h-2.85c-.21-.88-1.04-1.52-2.05-1.52-1.48,0-2.34,1.17-2.34,2.89s.86,2.89,2.34,2.89c1.02,0,1.84-.64,2.05-1.52h2.85c-.2,1.74-1.7,3.98-4.88,3.98-2.97,0-5.14-2.3-5.14-5.35s2.17-5.35,5.14-5.35Z"/>
    <path class="cls-3" d="M176.11,34.36v10.23h-2.56v-1.25c-.64.94-1.8,1.48-3.24,1.48-2.97,0-4.71-2.38-4.71-5.35s1.74-5.35,4.71-5.35c1.45,0,2.6.55,3.24,1.48v-1.25h2.56ZM170.9,36.56c-1.54,0-2.52,1.25-2.52,2.91s.98,2.91,2.52,2.91,2.52-1.25,2.52-2.91-.98-2.91-2.52-2.91Z"/>
    <path class="cls-3" d="M181.74,44.59h-2.77v-8.05h-1.39v-2.19h1.39v-2.54h2.77v2.54h1.5v2.19h-1.5v8.05Z"/>
    <path class="cls-3" d="M184.29,31.37c0-.98.7-1.68,1.68-1.68s1.68.7,1.68,1.68-.7,1.66-1.68,1.66-1.68-.68-1.68-1.66ZM184.59,34.36h2.77v10.23h-2.77v-10.23Z"/>
    <path class="cls-3" d="M189.1,39.47c0-2.91,2.09-5.35,5.37-5.35s5.37,2.44,5.37,5.35-2.09,5.35-5.37,5.35-5.37-2.44-5.37-5.35ZM194.47,42.38c1.46,0,2.6-1.07,2.6-2.91s-1.13-2.91-2.6-2.91-2.6,1.07-2.6,2.91,1.13,2.91,2.6,2.91Z"/>
    <path class="cls-3" d="M204.21,35.61c.47-.88,1.52-1.48,3.05-1.48,2.46,0,3.77,1.64,3.77,4.08v6.39h-2.77v-6.07c0-1.19-.51-2.01-1.74-2.01-1.35,0-2.09.86-2.09,2.23v5.86h-2.77v-10.23h2.56v1.25Z"/>
    <path class="cls-3" d="M117.54,64.12l5.21-13.87h3.01l5.21,13.87h-3.07l-.84-2.38h-5.7l-.84,2.38h-2.99ZM124.2,53.77l-1.91,5.41h3.87l-1.91-5.41h-.04Z"/>
    <path class="cls-3" d="M132.26,64.12v-14.65h2.77v14.65h-2.77Z"/>
    <path class="cls-3" d="M137.42,64.12v-14.65h2.77v14.65h-2.77Z"/>
    <path class="cls-3" d="M142.3,50.9c0-.98.7-1.68,1.68-1.68s1.68.7,1.68,1.68-.7,1.66-1.68,1.66-1.68-.68-1.68-1.66ZM142.59,53.89h2.77v10.23h-2.77v-10.23Z"/>
    <path class="cls-3" d="M157.66,53.89v10.23h-2.56v-1.25c-.64.94-1.8,1.48-3.24,1.48-2.97,0-4.71-2.38-4.71-5.35s1.74-5.35,4.71-5.35c1.45,0,2.6.55,3.24,1.48v-1.25h2.56ZM152.44,56.1c-1.54,0-2.52,1.25-2.52,2.91s.98,2.91,2.52,2.91,2.52-1.25,2.52-2.91-.98-2.91-2.52-2.91Z"/>
    <path class="cls-3" d="M162.63,55.14c.47-.88,1.52-1.48,3.05-1.48,2.46,0,3.77,1.64,3.77,4.08v6.39h-2.77v-6.07c0-1.19-.51-2.01-1.74-2.01-1.35,0-2.09.86-2.09,2.23v5.86h-2.77v-10.23h2.56v1.25Z"/>
    <path class="cls-3" d="M176.3,53.65c3.18,0,4.69,2.25,4.88,3.98h-2.85c-.21-.88-1.04-1.52-2.05-1.52-1.48,0-2.34,1.17-2.34,2.89s.86,2.89,2.34,2.89c1.02,0,1.84-.64,2.05-1.52h2.85c-.2,1.74-1.7,3.98-4.88,3.98-2.97,0-5.14-2.3-5.14-5.35s2.17-5.35,5.14-5.35Z"/>
    <path class="cls-3" d="M185.02,59.81c.2,1.41,1.09,2.17,2.48,2.17.84,0,1.64-.37,1.97-1.11h2.79c-.61,2.07-2.48,3.5-4.84,3.5-3.03,0-5.16-2.23-5.16-5.37s2.11-5.33,5.14-5.33,5.08,2.3,5.08,5.33c0,.45-.04.82-.04.82h-7.42ZM185.06,57.81h4.65c-.2-1.15-1.04-1.93-2.32-1.93s-2.09.76-2.32,1.93Z"/>
    <path class="cls-1" d="M123.68,87.27l3.05-4.03h1.96v10.4h-2.05v-7.09l-2.93,3.76h-.06l-2.93-3.76v7.09h-2.05v-10.4h1.96l3.05,4.03Z"/>
    <path class="cls-1" d="M132.39,90.4c.15,1.05.82,1.63,1.86,1.63.63,0,1.23-.28,1.48-.83h2.09c-.45,1.55-1.86,2.62-3.63,2.62-2.27,0-3.87-1.67-3.87-4.03s1.58-4,3.85-4,3.81,1.73,3.81,4c0,.34-.03.62-.03.62h-5.57ZM132.42,88.91h3.49c-.15-.86-.78-1.45-1.74-1.45s-1.57.57-1.74,1.45Z"/>
    <path class="cls-1" d="M146.23,93.64h-2.08v-4.56c0-.85-.31-1.51-1.23-1.51s-1.49.63-1.49,1.66v4.41h-2.08v-7.68h1.92v.94c.35-.66,1.11-1.11,2.21-1.11,1.04,0,1.79.41,2.23,1.08.67-.75,1.45-1.08,2.55-1.08,1.85,0,2.78,1.27,2.78,3.06v4.79h-2.08v-4.56c0-.85-.31-1.51-1.23-1.51-.98,0-1.49.63-1.49,1.7v4.37Z"/>
    <path class="cls-1" d="M157.18,85.79c2.23,0,3.53,1.79,3.53,4.01s-1.3,4.01-3.53,4.01c-1.08,0-1.95-.41-2.43-1.11v.94h-1.92v-10.99h2.08v4.13c.4-.53,1.19-1,2.27-1ZM156.74,91.99c1.16,0,1.89-.94,1.89-2.18s-.73-2.18-1.89-2.18-1.89.94-1.89,2.18.73,2.18,1.89,2.18Z"/>
    <path class="cls-1" d="M163.74,90.4c.15,1.05.82,1.63,1.86,1.63.63,0,1.23-.28,1.48-.83h2.09c-.45,1.55-1.86,2.62-3.63,2.62-2.27,0-3.87-1.67-3.87-4.03s1.58-4,3.85-4,3.81,1.73,3.81,4c0,.34-.03.62-.03.62h-5.57ZM163.76,88.91h3.49c-.15-.86-.78-1.45-1.74-1.45s-1.57.57-1.74,1.45Z"/>
    <path class="cls-1" d="M175.03,87.85s-.22-.04-.41-.04c-1.22,0-1.85.6-1.85,2.01v3.82h-2.08v-7.68h1.92v1c.28-.45.86-1.07,2.17-1.07.07,0,.25.01.25.01v1.95Z"/>
  </g>
</svg>